<svg version="1.1" xmlns="http://www.w3.org/2000/svg" xmlns:xlink="http://www.w3.org/1999/xlink" width="985" height="1109"><desc>title%20udev_seat_create%0A%0Aparticipant%20libinput-seat%0A%0A%3D%3D%20create%20seat%20%3D%3D%20%23pink%0A%5B-%3Elibinput-seat%3Audev_seat_create(%20)%0A%0Arbox%20right%20of%20libinput-seat%3Amalloc(%3Ccolor%3A%23red%3E%20struct%20udev_seat%3C%2Fcolor%3E)%0A%0A%0Alibinput-seat-%3Einput%3Aweston_seat_init(%3Ccolor%3A%23AA33FF%3Eweston_seat%3C%2Fcolor%3E%20)%20%20%20%20%20%20%20%20%20%20%20%20%20%20%20%20%20%0Ainput%20-%3E%20IPC%3A%20wl_global_create(%3Ccolor%3A%23red%3Ebind_seat%3C%2Fcolor%3E)%20%20%20%20%20%20%20%20%20%20%20%20%20%20%20%20%20%20%20%20%20%0A%0Arbox%20right%20of%20input%3A%20insert%20%3Ccolor%3A%23red%3Ecompositor-%3Eseat_list%3C%2Fcolor%3E%0A%0Arbox%20right%20of%20libinput-seat%3Aadd%20listener%5Cn%3Ccolor%3A%23red%3Eoutput_create_listener%5Cnoutput_heads_changed_listener%3C%2Fcolor%3E%0A%0Arbox%20right%20of%20libinput-seat%3Ainit%20seat-%3E%3Ccolor%3A%23red%3Edevice_list%3C%2Fcolor%3E%0A%0A%3D%3Dbind_seat(%20)%3D%3D%23yellow%0AIPC%20-%3Einput%3A%20bind_seat(%20)%0Aactivate%20input%0Arbox%20right%20of%20input%3Awl_resource_create(%20)%0Arbox%20right%20of%20input%3Awl_resource_set_implementation(%3Ccolor%3A%23red%3Eseat_interface%3C%2Fcolor%3E%20)%0Anote%20right%20of%20input%3A%3Cbackground%3A%23pink%3E%20seat_get_pointer%2C%5Cn%09seat_get_keyboard%2C%5Cn%09seat_get_touch%2C%5Cn%09seat_release%3C%2Fbackground%3E%0Ainput%20-%3E%20IPC%3A%20wl_seat_send_capabilities(%20)%0A%0Adeactivate%20input</desc><defs/><g><g/><g/><g/><g/><g/><g/><g/><g/><g/><g/><g/><g/><g/><g/><g/><g/><g/><g/><g/><g/><g/><g/><g/><g/><g/><g/><g/><g/><g/><g><rect fill="white" stroke="none" x="0" y="0" width="985" height="1109"/></g><g><text fill="black" stroke="none" font-family="sans-serif" font-size="16.5pt" font-style="normal" font-weight="normal" text-decoration="normal" x="403.39123929922334" y="26.3876361" text-anchor="start" dominant-baseline="alphabetic" xml:space="preserve">udev_seat_create</text></g><g/><g><path fill="none" stroke="black" paint-order="fill stroke markers" d=" M 188.8926413125651 103.26361593799999 L 188.8926413125651 1109.5121392179997" stroke-miterlimit="10" stroke-width="1.4659797833333332" stroke-dasharray="13.532121076923076,5.863919133333333"/><path fill="none" stroke="black" paint-order="fill stroke markers" d=" M 532.4093670977865 103.26361593799999 L 532.4093670977865 1109.5121392179997" stroke-miterlimit="10" stroke-width="1.4659797833333332" stroke-dasharray="13.532121076923076,5.863919133333333"/><path fill="none" stroke="black" paint-order="fill stroke markers" d=" M 946.0210107097787 103.26361593799999 L 946.0210107097787 1109.5121392179997" stroke-miterlimit="10" stroke-width="1.4659797833333332" stroke-dasharray="13.532121076923076,5.863919133333333"/></g><g><path fill="none" stroke="none"/><g><path fill="white" stroke="black" paint-order="fill stroke markers" d=" M 125.75764141833073 55.765870957999994 L 252.0276412067995 55.765870957999994 L 252.0276412067995 103.26361593799999 L 125.75764141833073 103.26361593799999 L 125.75764141833073 55.765870957999994 Z" stroke-miterlimit="10" stroke-width="2.814681184" stroke-dasharray=""/></g><g><g/><text fill="black" stroke="none" font-family="sans-serif" font-size="11pt" font-style="normal" font-weight="normal" text-decoration="normal" x="144.84469819733073" y="85.67185853800001" text-anchor="start" dominant-baseline="alphabetic" xml:space="preserve">libinput-seat</text></g><path fill="none" stroke="none"/><g><path fill="white" stroke="black" paint-order="fill stroke markers" d=" M 494.9257496498411 55.765870957999994 L 569.8929845457318 55.765870957999994 L 569.8929845457318 103.26361593799999 L 494.9257496498411 103.26361593799999 L 494.9257496498411 55.765870957999994 Z" stroke-miterlimit="10" stroke-width="2.814681184" stroke-dasharray=""/></g><g><g/><text fill="black" stroke="none" font-family="sans-serif" font-size="11pt" font-style="normal" font-weight="normal" text-decoration="normal" x="514.0128064288411" y="85.67185853800001" text-anchor="start" dominant-baseline="alphabetic" xml:space="preserve">input</text></g><path fill="none" stroke="none"/><g><path fill="white" stroke="black" paint-order="fill stroke markers" d=" M 915.3913590211107 55.765870957999994 L 976.6506623984467 55.765870957999994 L 976.6506623984467 103.26361593799999 L 915.3913590211107 103.26361593799999 L 915.3913590211107 55.765870957999994 Z" stroke-miterlimit="10" stroke-width="2.814681184" stroke-dasharray=""/></g><g><g/><text fill="black" stroke="none" font-family="sans-serif" font-size="11pt" font-style="normal" font-weight="normal" text-decoration="normal" x="934.4784158001107" y="85.67185853800001" text-anchor="start" dominant-baseline="alphabetic" xml:space="preserve">IPC</text></g></g><g><path fill="white" stroke="black" paint-order="fill stroke markers" d=" M 523.6134883977865 745.3627610379998 L 541.2052457977865 745.3627610379998 L 541.2052457977865 1047.9409883179997 L 523.6134883977865 1047.9409883179997 L 523.6134883977865 745.3627610379998" stroke-miterlimit="10" stroke-width="1.4659797833333332" stroke-dasharray=""/><path fill="none" stroke="black" paint-order="fill stroke markers" d=" M 8.7958787 152.81373261466666 L 976.2041213 152.81373261466666 M 8.7958787 158.677651748 L 976.2041213 158.677651748 M 8.7958787 164.5415708813333 L 976.2041213 164.5415708813333" stroke-miterlimit="10" stroke-width="1.4659797833333332" stroke-dasharray=""/><path fill="pink" stroke="black" paint-order="fill stroke markers" d=" M 425.6203036780859 138.447130738 L 559.379696321914 138.447130738 L 559.379696321914 178.90817275799998 L 425.6203036780859 178.90817275799998 Z" stroke-miterlimit="10" stroke-width="1.4659797833333332" stroke-dasharray=""/><g><text fill="black" stroke="none" font-family="sans-serif" font-size="11pt" font-style="normal" font-weight="normal" text-decoration="normal" x="450.24876403808594" y="163.07559109800002" text-anchor="start" dominant-baseline="alphabetic" xml:space="preserve"> create seat </text></g><g><g><rect fill="white" stroke="none" x="29.612791623333337" y="205.29580885799996" width="138.46293676589843" height="22.86928462"/></g><text fill="black" stroke="none" font-family="sans-serif" font-size="11pt" font-style="normal" font-weight="normal" text-decoration="normal" x="32.251555233333335" y="221.12839051799997" text-anchor="start" dominant-baseline="alphabetic" xml:space="preserve">udev_seat_create( )</text></g><g><path fill="none" stroke="black" paint-order="fill stroke markers" d=" M 8.7958787 228.16509347799996 L 174.40876105323179 228.16509347799996" stroke-miterlimit="10" stroke-width="1.4659797833333332" stroke-dasharray=""/><g transform="translate(188.8926413125651,228.16509347799996) translate(-188.8926413125651,-228.16509347799996)"><path fill="black" stroke="none" paint-order="stroke fill markers" d=" M 174.23284347923178 220.83519456133328 L 188.8926413125651 228.16509347799996 L 174.23284347923178 235.49499239466664 Z"/></g></g><path fill="white" stroke="black" paint-order="fill stroke markers" d=" M 188.8926413125651 274.78325058799993 L 197.6885200125651 274.78325058799993 M 197.6885200125651 270.385311238 L 197.6885200125651 270.385311238 A 15.832581659999999 15.832581659999999 0 0 1 213.5211016725651 254.552729578 L 405.250294985651 254.55272957799997 L 405.250294985651 254.552729578 A 15.832581659999999 15.832581659999999 0 0 1 421.082876645651 270.385311238 L 421.082876645651 279.18118993799993 L 421.082876645651 279.18118993799993 A 15.832581659999999 15.832581659999999 0 0 1 405.250294985651 295.01377159799995 L 213.5211016725651 295.01377159799995 L 213.5211016725651 295.01377159799995 A 15.832581659999999 15.832581659999999 0 0 1 197.6885200125651 279.18118993799993 L 197.6885200125651 270.385311238" stroke-miterlimit="10" stroke-width="1.4659797833333332" stroke-dasharray=""/><g><text fill="black" stroke="none" font-family="sans-serif" font-size="11pt" font-style="normal" font-weight="normal" text-decoration="normal" x="222.31698037256513" y="279.18118993799993" text-anchor="start" dominant-baseline="alphabetic" xml:space="preserve">malloc(</text><text fill="red" stroke="none" font-family="sans-serif" font-size="11pt" font-style="normal" font-weight="normal" text-decoration="normal" x="273.52672768701825" y="279.18118993799993" text-anchor="start" dominant-baseline="alphabetic" xml:space="preserve"> struct udev_seat</text><text fill="black" stroke="none" font-family="sans-serif" font-size="11pt" font-style="normal" font-weight="normal" text-decoration="normal" x="391.5582065688542" y="279.18118993799993" text-anchor="start" dominant-baseline="alphabetic" xml:space="preserve">)</text></g><g><g><rect fill="white" stroke="none" x="214.10749358589845" y="321.40140769799996" width="293.0870212385547" height="22.86928462"/></g><text fill="black" stroke="none" font-family="sans-serif" font-size="11pt" font-style="normal" font-weight="normal" text-decoration="normal" x="216.74625719589847" y="337.233989358" text-anchor="start" dominant-baseline="alphabetic" xml:space="preserve">weston_seat_init(</text><text fill="#AA33FF" stroke="none" font-family="sans-serif" font-size="11pt" font-style="normal" font-weight="normal" text-decoration="normal" x="336.04476488632815" y="337.233989358" text-anchor="start" dominant-baseline="alphabetic" xml:space="preserve">weston_seat</text><text fill="black" stroke="none" font-family="sans-serif" font-size="11pt" font-style="normal" font-weight="normal" text-decoration="normal" x="421.5780595640625" y="337.233989358" text-anchor="start" dominant-baseline="alphabetic" xml:space="preserve"> )                 </text></g><g><path fill="none" stroke="black" paint-order="fill stroke markers" d=" M 188.8926413125651 344.27069231799993 L 517.9254868384531 344.27069231799993" stroke-miterlimit="10" stroke-width="1.4659797833333332" stroke-dasharray=""/><g transform="translate(532.4093670977865,344.27069231799993) translate(-532.4093670977865,-344.27069231799993)"><path fill="black" stroke="none" paint-order="stroke fill markers" d=" M 517.7495692644532 336.9407934013333 L 532.4093670977865 344.27069231799993 L 517.7495692644532 351.6005912346666 Z"/></g></g><g><g><rect fill="white" stroke="none" x="595.0768449104818" y="370.65832841799994" width="288.2766879866016" height="22.86928462"/></g><text fill="black" stroke="none" font-family="sans-serif" font-size="11pt" font-style="normal" font-weight="normal" text-decoration="normal" x="597.7156085204817" y="386.49091007799996" text-anchor="start" dominant-baseline="alphabetic" xml:space="preserve">wl_global_create(</text><text fill="red" stroke="none" font-family="sans-serif" font-size="11pt" font-style="normal" font-weight="normal" text-decoration="normal" x="717.808687133763" y="386.49091007799996" text-anchor="start" dominant-baseline="alphabetic" xml:space="preserve">bind_seat</text><text fill="black" stroke="none" font-family="sans-serif" font-size="11pt" font-style="normal" font-weight="normal" text-decoration="normal" x="784.723497314427" y="386.49091007799996" text-anchor="start" dominant-baseline="alphabetic" xml:space="preserve">)                     </text></g><g><path fill="none" stroke="black" paint-order="fill stroke markers" d=" M 532.4093670977865 393.5276130379999 L 931.5371304504454 393.5276130379999" stroke-miterlimit="10" stroke-width="1.4659797833333332" stroke-dasharray=""/><g transform="translate(946.0210107097787,393.5276130379999) translate(-946.0210107097787,-393.5276130379999)"><path fill="black" stroke="none" paint-order="stroke fill markers" d=" M 931.3612128764454 386.19771412133326 L 946.0210107097787 393.5276130379999 L 931.3612128764454 400.85751195466656 Z"/></g></g><path fill="white" stroke="black" paint-order="fill stroke markers" d=" M 532.4093670977865 440.1457701479999 L 541.2052457977865 440.1457701479999 M 541.2052457977865 435.74783079799994 L 541.2052457977865 435.74783079799994 A 15.832581659999999 15.832581659999999 0 0 1 557.0378274577864 419.9152491379999 L 770.0697856634506 419.9152491379999 L 770.0697856634506 419.9152491379999 A 15.832581659999999 15.832581659999999 0 0 1 785.9023673234506 435.74783079799994 L 785.9023673234506 444.5437094979999 L 785.9023673234506 444.5437094979999 A 15.832581659999999 15.832581659999999 0 0 1 770.0697856634506 460.3762911579999 L 557.0378274577864 460.3762911579999 L 557.0378274577864 460.3762911579999 A 15.832581659999999 15.832581659999999 0 0 1 541.2052457977865 444.5437094979999 L 541.2052457977865 435.74783079799994" stroke-miterlimit="10" stroke-width="1.4659797833333332" stroke-dasharray=""/><g><text fill="black" stroke="none" font-family="sans-serif" font-size="11pt" font-style="normal" font-weight="normal" text-decoration="normal" x="565.8337061577864" y="444.5437094979999" text-anchor="start" dominant-baseline="alphabetic" xml:space="preserve">insert </text><text fill="red" stroke="none" font-family="sans-serif" font-size="11pt" font-style="normal" font-weight="normal" text-decoration="normal" x="609.7277491265364" y="444.5437094979999" text-anchor="start" dominant-baseline="alphabetic" xml:space="preserve">compositor-&gt;seat_list</text></g><path fill="white" stroke="black" paint-order="fill stroke markers" d=" M 188.8926413125651 524.5862056679999 L 197.6885200125651 524.5862056679999 M 197.6885200125651 502.5965089179999 L 197.6885200125651 502.5965089179999 A 15.832581659999999 15.832581659999999 0 0 1 213.5211016725651 486.7639272579999 L 451.893117251276 486.7639272579999 L 451.893117251276 486.7639272579999 A 15.832581659999999 15.832581659999999 0 0 1 467.725698911276 502.5965089179999 L 467.725698911276 546.5759024179999 L 467.725698911276 546.5759024179999 A 15.832581659999999 15.832581659999999 0 0 1 451.893117251276 562.4084840779999 L 213.5211016725651 562.4084840779999 L 213.5211016725651 562.4084840779999 A 15.832581659999999 15.832581659999999 0 0 1 197.6885200125651 546.5759024179999 L 197.6885200125651 502.5965089179999" stroke-miterlimit="10" stroke-width="1.4659797833333332" stroke-dasharray=""/><g><text fill="black" stroke="none" font-family="sans-serif" font-size="11pt" font-style="normal" font-weight="normal" text-decoration="normal" x="222.31698037256513" y="511.39238761799993" text-anchor="start" dominant-baseline="alphabetic" xml:space="preserve">add listener</text><text fill="red" stroke="none" font-family="sans-serif" font-size="11pt" font-style="normal" font-weight="normal" text-decoration="normal" x="222.31698037256513" y="528.9841450179999" text-anchor="start" dominant-baseline="alphabetic" xml:space="preserve">output_create_listener</text><text fill="red" stroke="none" font-family="sans-serif" font-size="11pt" font-style="normal" font-weight="normal" text-decoration="normal" x="222.31698037256513" y="546.5759024179999" text-anchor="start" dominant-baseline="alphabetic" xml:space="preserve">output_heads_changed_listener</text></g><path fill="white" stroke="black" paint-order="fill stroke markers" d=" M 188.8926413125651 609.0266411879999 L 197.6885200125651 609.0266411879999 M 197.6885200125651 604.6287018379998 L 197.6885200125651 604.6287018379998 A 15.832581659999999 15.832581659999999 0 0 1 213.5211016725651 588.7961201779998 L 374.3411915920963 588.7961201779998 L 374.3411915920963 588.7961201779998 A 15.832581659999999 15.832581659999999 0 0 1 390.17377325209634 604.6287018379998 L 390.17377325209634 613.4245805379999 L 390.17377325209634 613.4245805379999 A 15.832581659999999 15.832581659999999 0 0 1 374.3411915920963 629.2571621979998 L 213.5211016725651 629.2571621979998 L 213.5211016725651 629.2571621979998 A 15.832581659999999 15.832581659999999 0 0 1 197.6885200125651 613.4245805379999 L 197.6885200125651 604.6287018379998" stroke-miterlimit="10" stroke-width="1.4659797833333332" stroke-dasharray=""/><g><text fill="black" stroke="none" font-family="sans-serif" font-size="11pt" font-style="normal" font-weight="normal" text-decoration="normal" x="222.31698037256513" y="613.4245805379999" text-anchor="start" dominant-baseline="alphabetic" xml:space="preserve">init seat-&gt;</text><text fill="red" stroke="none" font-family="sans-serif" font-size="11pt" font-style="normal" font-weight="normal" text-decoration="normal" x="293.9633426772526" y="613.4245805379999" text-anchor="start" dominant-baseline="alphabetic" xml:space="preserve">device_list</text></g><path fill="none" stroke="black" paint-order="fill stroke markers" d=" M 8.7958787 670.0114001746665 L 976.2041213 670.0114001746665 M 8.7958787 675.8753193079998 L 976.2041213 675.8753193079998 M 8.7958787 681.7392384413331 L 976.2041213 681.7392384413331" stroke-miterlimit="10" stroke-width="1.4659797833333332" stroke-dasharray=""/><path fill="yellow" stroke="black" paint-order="fill stroke markers" d=" M 427.34899477916014 655.6447982979997 L 557.6510052208398 655.6447982979997 L 557.6510052208398 696.1058403179998 L 427.34899477916014 696.1058403179998 Z" stroke-miterlimit="10" stroke-width="1.4659797833333332" stroke-dasharray=""/><g><text fill="black" stroke="none" font-family="sans-serif" font-size="11pt" font-style="normal" font-weight="normal" text-decoration="normal" x="451.97745513916016" y="680.2732586579998" text-anchor="start" dominant-baseline="alphabetic" xml:space="preserve">bind_seat( )</text></g><g><g><rect fill="white" stroke="none" x="700.4518197829428" y="722.4934764179998" width="86.32261694167968" height="22.86928462"/></g><text fill="black" stroke="none" font-family="sans-serif" font-size="11pt" font-style="normal" font-weight="normal" text-decoration="normal" x="703.0905833929428" y="738.3260580779997" text-anchor="start" dominant-baseline="alphabetic" xml:space="preserve">bind_seat( )</text></g><g><path fill="none" stroke="black" paint-order="fill stroke markers" d=" M 946.0210107097787 745.3627610379998 L 555.6891260571198 745.3627610379998" stroke-miterlimit="10" stroke-width="1.4659797833333332" stroke-dasharray=""/><g transform="translate(541.2052457977865,745.3627610379998) translate(-541.2052457977865,-745.3627610379998)"><path fill="black" stroke="none" paint-order="stroke fill markers" d=" M 555.8650436311198 738.0328621213331 L 541.2052457977865 745.3627610379998 L 555.8650436311198 752.6926599546665 Z"/></g></g><path fill="white" stroke="black" paint-order="fill stroke markers" d=" M 541.2052457977865 791.9809181479999 L 550.0011244977865 791.9809181479999 M 550.0011244977865 787.5829787979998 L 550.0011244977865 787.5829787979998 A 15.832581659999999 15.832581659999999 0 0 1 565.8337061577864 771.7503971379998 L 728.9015072589584 771.7503971379998 L 728.9015072589584 771.7503971379998 A 15.832581659999999 15.832581659999999 0 0 1 744.7340889189584 787.5829787979998 L 744.7340889189584 796.3788574979999 L 744.7340889189584 796.3788574979999 A 15.832581659999999 15.832581659999999 0 0 1 728.9015072589584 812.2114391579998 L 565.8337061577864 812.2114391579998 L 565.8337061577864 812.2114391579998 A 15.832581659999999 15.832581659999999 0 0 1 550.0011244977865 796.3788574979999 L 550.0011244977865 787.5829787979998" stroke-miterlimit="10" stroke-width="1.4659797833333332" stroke-dasharray=""/><g><text fill="black" stroke="none" font-family="sans-serif" font-size="11pt" font-style="normal" font-weight="normal" text-decoration="normal" x="574.6295848577864" y="796.3788574979999" text-anchor="start" dominant-baseline="alphabetic" xml:space="preserve">wl_resource_create( )</text></g><path fill="white" stroke="black" paint-order="fill stroke markers" d=" M 541.2052457977865 858.8295962679998 L 550.0011244977865 858.8295962679998 M 550.0011244977865 854.4316569179997 L 550.0011244977865 854.4316569179997 A 15.832581659999999 15.832581659999999 0 0 1 565.8337061577864 838.5990752579997 L 921.3925503497787 838.5990752579997 L 921.3925503497787 838.5990752579997 A 15.832581659999999 15.832581659999999 0 0 1 937.2251320097787 854.4316569179997 L 937.2251320097787 863.2275356179998 L 937.2251320097787 863.2275356179998 A 15.832581659999999 15.832581659999999 0 0 1 921.3925503497787 879.0601172779998 L 565.8337061577864 879.0601172779998 L 565.8337061577864 879.0601172779998 A 15.832581659999999 15.832581659999999 0 0 1 550.0011244977865 863.2275356179998 L 550.0011244977865 854.4316569179997" stroke-miterlimit="10" stroke-width="1.4659797833333332" stroke-dasharray=""/><g><text fill="black" stroke="none" font-family="sans-serif" font-size="11pt" font-style="normal" font-weight="normal" text-decoration="normal" x="574.6295848577864" y="863.2275356179998" text-anchor="start" dominant-baseline="alphabetic" xml:space="preserve">wl_resource_set_implementation(</text><text fill="red" stroke="none" font-family="sans-serif" font-size="11pt" font-style="normal" font-weight="normal" text-decoration="normal" x="806.7770763128646" y="863.2275356179998" text-anchor="start" dominant-baseline="alphabetic" xml:space="preserve">seat_interface</text><text fill="black" stroke="none" font-family="sans-serif" font-size="11pt" font-style="normal" font-weight="normal" text-decoration="normal" x="903.3626018255599" y="863.2275356179998" text-anchor="start" dominant-baseline="alphabetic" xml:space="preserve"> )</text></g><path fill="white" stroke="black" paint-order="fill stroke markers" d=" M 541.2052457977865 952.0659104879998 L 550.0011244977865 952.0659104879998 M 550.0011244977865 905.4477533779998 L 721.3495968585678 905.4477533779998 L 737.1821785185678 921.2803350379997 L 737.1821785185678 998.6840675979997 L 550.0011244977865 998.6840675979997 L 550.0011244977865 905.4477533779998 M 721.3495968585678 905.4477533779998 L 721.3495968585678 921.2803350379997 L 737.1821785185678 921.2803350379997" stroke-miterlimit="10" stroke-width="1.4659797833333332" stroke-dasharray=""/><g><g><rect fill="pink" stroke="none" x="574.6295848577864" y="917.0583132619997" width="122.48388671875" height="17.767674974"/><text fill="black" stroke="none" font-family="sans-serif" font-size="11pt" font-style="normal" font-weight="normal" text-decoration="normal" x="574.6295848577864" y="930.0762137379998" text-anchor="start" dominant-baseline="alphabetic" xml:space="preserve"> seat_get_pointer,</text><g><rect fill="pink" stroke="none" x="574.6295848577864" y="934.6500706619997" width="137.92413330078125" height="17.767674974"/><text fill="black" stroke="none" font-family="sans-serif" font-size="11pt" font-style="normal" font-weight="normal" text-decoration="normal" x="574.6295848577864" y="947.6679711379998" text-anchor="start" dominant-baseline="alphabetic" xml:space="preserve"> seat_get_keyboard,</text><g><rect fill="pink" stroke="none" x="574.6295848577864" y="952.2418280619997" width="112.90623474121094" height="17.767674974"/><text fill="black" stroke="none" font-family="sans-serif" font-size="11pt" font-style="normal" font-weight="normal" text-decoration="normal" x="574.6295848577864" y="965.2597285379998" text-anchor="start" dominant-baseline="alphabetic" xml:space="preserve"> seat_get_touch,</text><g><rect fill="pink" stroke="none" x="574.6295848577864" y="969.8335854619997" width="88.71150207519531" height="17.767674974"/><text fill="black" stroke="none" font-family="sans-serif" font-size="11pt" font-style="normal" font-weight="normal" text-decoration="normal" x="574.6295848577864" y="982.8514859379998" text-anchor="start" dominant-baseline="alphabetic" xml:space="preserve"> seat_release</text></g><g><g><rect fill="white" stroke="none" x="646.0996393019858" y="1025.0717036979997" width="195.02697790359375" height="22.86928462"/></g><text fill="black" stroke="none" font-family="sans-serif" font-size="11pt" font-style="normal" font-weight="normal" text-decoration="normal" x="648.7384029119858" y="1040.9042853579997" text-anchor="start" dominant-baseline="alphabetic" xml:space="preserve">wl_seat_send_capabilities( )</text></g><g><path fill="none" stroke="black" paint-order="fill stroke markers" d=" M 541.2052457977865 1047.9409883179997 L 931.5371304504454 1047.9409883179997" stroke-miterlimit="10" stroke-width="1.4659797833333332" stroke-dasharray=""/><g transform="translate(946.0210107097787,1047.9409883179997) translate(-946.0210107097787,-1047.9409883179997)"><path fill="black" stroke="none" paint-order="stroke fill markers" d=" M 931.3612128764454 1040.611089401333 L 946.0210107097787 1047.9409883179997 L 931.3612128764454 1055.2708872346664 Z"/></g></g></g><g/><g/><g/></g></g></g></g></g></svg>